<svg width="32" height="38" viewBox="0 0 32 38" fill="none" xmlns="http://www.w3.org/2000/svg">
<path d="M21.8947 19.0001C22.3719 19.0001 22.7719 18.8248 23.0947 18.4744C23.4175 18.1239 23.5789 17.6896 23.5789 17.1715C23.5789 16.6534 23.4175 16.2191 23.0947 15.8686C22.7719 15.5182 22.3719 15.3429 21.8947 15.3429H15.1579C14.6807 15.3429 14.2807 15.5182 13.9579 15.8686C13.6351 16.2191 13.4737 16.6534 13.4737 17.1715C13.4737 17.6896 13.6351 18.1239 13.9579 18.4744C14.2807 18.8248 14.6807 19.0001 15.1579 19.0001H21.8947ZM21.8947 11.6858C22.3719 11.6858 22.7719 11.5105 23.0947 11.1601C23.4175 10.8096 23.5789 10.3753 23.5789 9.85721C23.5789 9.33912 23.4175 8.90483 23.0947 8.55436C22.7719 8.20388 22.3719 8.02864 21.8947 8.02864H15.1579C14.6807 8.02864 14.2807 8.20388 13.9579 8.55436C13.6351 8.90483 13.4737 9.33912 13.4737 9.85721C13.4737 10.3753 13.6351 10.8096 13.9579 11.1601C14.2807 11.5105 14.6807 11.6858 15.1579 11.6858H21.8947ZM23.5789 31.8001H20.2105C19.7333 31.8001 19.3333 31.6248 19.0105 31.2744C18.6877 30.9239 18.5263 30.4896 18.5263 29.9715C18.5263 29.4534 18.6877 29.0191 19.0105 28.6686C19.3333 28.3182 19.7333 28.1429 20.2105 28.1429H23.5789V24.4858C23.5789 23.9677 23.7404 23.5334 24.0632 23.1829C24.386 22.8325 24.786 22.6572 25.2632 22.6572C25.7404 22.6572 26.1404 22.8325 26.4632 23.1829C26.786 23.5334 26.9474 23.9677 26.9474 24.4858V28.1429H30.3158C30.793 28.1429 31.193 28.3182 31.5158 28.6686C31.8386 29.0191 32 29.4534 32 29.9715C32 30.4896 31.8386 30.9239 31.5158 31.2744C31.193 31.6248 30.793 31.8001 30.3158 31.8001H26.9474V35.4572C26.9474 35.9753 26.786 36.4096 26.4632 36.7601C26.1404 37.1105 25.7404 37.2858 25.2632 37.2858C24.786 37.2858 24.386 37.1105 24.0632 36.7601C23.7404 36.4096 23.5789 35.9753 23.5789 35.4572V31.8001ZM8.42105 26.3144C8.89825 26.3144 9.29825 26.1391 9.62105 25.7886C9.94386 25.4382 10.1053 25.0039 10.1053 24.4858C10.1053 23.9677 9.94386 23.5334 9.62105 23.1829C9.29825 22.8325 8.89825 22.6572 8.42105 22.6572C7.94386 22.6572 7.54386 22.8325 7.22105 23.1829C6.89825 23.5334 6.73684 23.9677 6.73684 24.4858C6.73684 25.0039 6.89825 25.4382 7.22105 25.7886C7.54386 26.1391 7.94386 26.3144 8.42105 26.3144ZM8.42105 19.0001C8.89825 19.0001 9.29825 18.8248 9.62105 18.4744C9.94386 18.1239 10.1053 17.6896 10.1053 17.1715C10.1053 16.6534 9.94386 16.2191 9.62105 15.8686C9.29825 15.5182 8.89825 15.3429 8.42105 15.3429C7.94386 15.3429 7.54386 15.5182 7.22105 15.8686C6.89825 16.2191 6.73684 16.6534 6.73684 17.1715C6.73684 17.6896 6.89825 18.1239 7.22105 18.4744C7.54386 18.8248 7.94386 19.0001 8.42105 19.0001ZM8.42105 11.6858C8.89825 11.6858 9.29825 11.5105 9.62105 11.1601C9.94386 10.8096 10.1053 10.3753 10.1053 9.85721C10.1053 9.33912 9.94386 8.90483 9.62105 8.55436C9.29825 8.20388 8.89825 8.02864 8.42105 8.02864C7.94386 8.02864 7.54386 8.20388 7.22105 8.55436C6.89825 8.90483 6.73684 9.33912 6.73684 9.85721C6.73684 10.3753 6.89825 10.8096 7.22105 11.1601C7.54386 11.5105 7.94386 11.6858 8.42105 11.6858ZM3.36842 33.6286C2.44211 33.6286 1.64912 33.2705 0.989474 32.5544C0.329825 31.8382 0 30.9772 0 29.9715V4.3715C0 3.36578 0.329825 2.50483 0.989474 1.78864C1.64912 1.07245 2.44211 0.714355 3.36842 0.714355H26.9474C27.8737 0.714355 28.6667 1.07245 29.3263 1.78864C29.986 2.50483 30.3158 3.36578 30.3158 4.3715V20.5086C29.5579 20.021 28.7509 19.6553 27.8947 19.4115C27.0386 19.1677 26.1614 19.0458 25.2632 19.0458C23.7754 19.0458 22.386 19.3658 21.0947 20.0058C19.8035 20.6458 18.6947 21.5296 17.7684 22.6572H15.1579C14.6807 22.6572 14.2807 22.8325 13.9579 23.1829C13.6351 23.5334 13.4737 23.9677 13.4737 24.4858C13.4737 25.0039 13.6351 25.4382 13.9579 25.7886C14.2807 26.1391 14.6807 26.3144 15.1579 26.3144H15.7474C15.5509 26.8934 15.4035 27.4877 15.3053 28.0972C15.207 28.7067 15.1579 29.3315 15.1579 29.9715C15.1579 30.581 15.2 31.1905 15.2842 31.8001C15.3684 32.4096 15.5088 33.0191 15.7053 33.6286H3.36842Z" fill="#FF8F0B"/>
</svg>
