<svg width="60" height="60" viewBox="0 0 60 60" fill="none" xmlns="http://www.w3.org/2000/svg">
<path d="M30 25L26.5 21.5L30.4375 17.5H20V12.5H30.4375L26.4375 8.5L30 5L40 15L30 25ZM17.5 55C16.125 55 14.9483 54.5108 13.97 53.5325C12.9917 52.5542 12.5017 51.3767 12.5 50C12.4983 48.6233 12.9883 47.4467 13.97 46.47C14.9517 45.4933 16.1283 45.0033 17.5 45C18.8717 44.9967 20.0492 45.4867 21.0325 46.47C22.0158 47.4533 22.505 48.63 22.5 50C22.495 51.37 22.0058 52.5475 21.0325 53.5325C20.0592 54.5175 18.8817 55.0067 17.5 55ZM42.5 55C41.125 55 39.9483 54.5108 38.97 53.5325C37.9917 52.5542 37.5017 51.3767 37.5 50C37.4983 48.6233 37.9883 47.4467 38.97 46.47C39.9517 45.4933 41.1283 45.0033 42.5 45C43.8717 44.9967 45.0492 45.4867 46.0325 46.47C47.0158 47.4533 47.505 48.63 47.5 50C47.495 51.37 47.0058 52.5475 46.0325 53.5325C45.0592 54.5175 43.8817 55.0067 42.5 55ZM2.5 10V5H10.6875L21.3125 27.5H38.8125L48.5625 10H54.25L43.25 29.875C42.7917 30.7083 42.1775 31.3542 41.4075 31.8125C40.6375 32.2708 39.7933 32.5 38.875 32.5H20.25L17.5 37.5H47.5V42.5H17.5C15.625 42.5 14.1975 41.6875 13.2175 40.0625C12.2375 38.4375 12.2067 36.7917 13.125 35.125L16.5 29L7.5 10H2.5Z" fill="black"/>
</svg>
