<svg width="65" height="65" viewBox="0 0 65 65" fill="none" xmlns="http://www.w3.org/2000/svg">
<rect x="1" y="1" width="63" height="63" rx="9" fill="white" stroke="#FF8F0B" stroke-width="2"/>
<path d="M32.5 15.6306C31.7621 15.6306 31.0313 15.776 30.3496 16.0584C29.6678 16.3408 29.0483 16.7547 28.5265 17.2765C28.0047 17.7983 27.5908 18.4178 27.3084 19.0995C27.026 19.7813 26.8806 20.512 26.8806 21.25C26.8806 21.9879 27.026 22.7187 27.3084 23.4004C27.5908 24.0822 28.0047 24.7017 28.5265 25.2235C29.0483 25.7453 29.6678 26.1592 30.3496 26.4416C31.0313 26.724 31.7621 26.8694 32.5 26.8694C33.9904 26.8694 35.4197 26.2773 36.4735 25.2235C37.5273 24.1697 38.1194 22.7403 38.1194 21.25C38.1194 19.7596 37.5273 18.3303 36.4735 17.2765C35.4197 16.2227 33.9904 15.6306 32.5 15.6306ZM45.1562 18.4375C44.0374 18.4375 42.9643 18.882 42.1731 19.6731C41.382 20.4643 40.9375 21.5374 40.9375 22.6562C40.9375 23.7751 41.382 24.8482 42.1731 25.6393C42.9643 26.4305 44.0374 26.875 45.1562 26.875C46.2751 26.875 47.3482 26.4305 48.1394 25.6393C48.9305 24.8482 49.375 23.7751 49.375 22.6562C49.375 21.5374 48.9305 20.4643 48.1394 19.6731C47.3482 18.882 46.2751 18.4375 45.1562 18.4375ZM19.8438 18.4375C18.7249 18.4375 17.6518 18.882 16.8606 19.6731C16.0695 20.4643 15.625 21.5374 15.625 22.6562C15.625 23.7751 16.0695 24.8482 16.8606 25.6393C17.6518 26.4305 18.7249 26.875 19.8438 26.875C20.9626 26.875 22.0357 26.4305 22.8269 25.6393C23.618 24.8482 24.0625 23.7751 24.0625 22.6562C24.0625 21.5374 23.618 20.4643 22.8269 19.6731C22.0357 18.882 20.9626 18.4375 19.8438 18.4375ZM24.0625 32.4803C24.0677 31.7378 24.3663 31.0275 24.8932 30.5043C25.4201 29.9811 26.1325 29.6875 26.875 29.6875H38.125C38.8709 29.6875 39.5863 29.9838 40.1137 30.5113C40.6412 31.0387 40.9375 31.7541 40.9375 32.5V40.9375C40.9382 41.8227 40.7997 42.7025 40.5269 43.5447C39.9041 45.4535 38.6212 47.0778 36.9086 48.126C35.196 49.1741 33.1659 49.5773 31.1827 49.2633C29.1995 48.9492 27.3933 47.9385 26.0883 46.4125C24.7833 44.8866 24.065 42.9454 24.0625 40.9375V32.4803ZM21.25 32.5C21.25 31.4734 21.5228 30.5144 22.0038 29.6875H15.625C14.8791 29.6875 14.1637 29.9838 13.6363 30.5113C13.1088 31.0387 12.8125 31.7541 12.8125 32.5V39.5312C12.8121 40.6824 13.0944 41.8161 13.6345 42.8327C14.1746 43.8492 14.9561 44.7177 15.9103 45.3617C16.8645 46.0056 17.9622 46.4055 19.107 46.5261C20.2519 46.6467 21.4088 46.4844 22.4763 46.0534C21.6685 44.4682 21.2482 42.7139 21.25 40.9347V32.5ZM43.75 32.5V40.9375C43.75 42.7797 43.3084 44.5178 42.5238 46.0534C43.5912 46.4844 44.7481 46.6467 45.893 46.5261C47.0378 46.4055 48.1355 46.0056 49.0897 45.3617C50.0439 44.7177 50.8254 43.8492 51.3655 42.8327C51.9056 41.8161 52.1879 40.6824 52.1875 39.5312V32.5C52.1875 31.7541 51.8912 31.0387 51.3637 30.5113C50.8363 29.9838 50.1209 29.6875 49.375 29.6875H42.9963C43.4744 30.5144 43.75 31.4734 43.75 32.5Z" fill="#FF8F0B"/>
</svg>
