<svg width="65" height="65" viewBox="0 0 65 65" fill="none" xmlns="http://www.w3.org/2000/svg">
<rect x="1" y="1" width="63" height="63" rx="9" fill="white" stroke="#FF8F0B" stroke-width="2"/>
<g clip-path="url(#clip0_874_2)">
<path d="M45.625 16.625H19.375C17.3125 16.625 15.625 18.3125 15.625 20.375V46.625C15.625 48.6875 17.3125 50.375 19.375 50.375H45.625C47.6875 50.375 49.375 48.6875 49.375 46.625V20.375C49.375 18.3125 47.6875 16.625 45.625 16.625ZM32.5 22.25C36.1187 22.25 39.0625 25.1938 39.0625 28.8125C39.0625 32.4312 36.1187 35.375 32.5 35.375C28.8813 35.375 25.9375 32.4312 25.9375 28.8125C25.9375 25.1938 28.8813 22.25 32.5 22.25ZM45.625 46.625H19.375V46.1938C19.375 45.0312 19.9 43.9438 20.8 43.2313C24.0063 40.6625 28.075 39.125 32.5 39.125C36.925 39.125 40.9937 40.6625 44.2 43.2313C45.1 43.9438 45.625 45.05 45.625 46.1938V46.625Z" fill="#FF8F0B"/>
</g>
<defs>
<clipPath id="clip0_874_2">
<rect width="45" height="45" fill="white" transform="translate(10 11)"/>
</clipPath>
</defs>
</svg>
