<svg width="65" height="65" viewBox="0 0 65 65" fill="none" xmlns="http://www.w3.org/2000/svg">
<rect x="1" y="1" width="63" height="63" rx="9" fill="white" stroke="#FF8F0B" stroke-width="2"/>
<path d="M15.6253 25.494V25.4687C15.6253 22.9685 16.3657 20.5244 17.7533 18.4446C19.1408 16.3648 21.1132 14.7426 23.4217 13.7825C25.7302 12.8225 28.2713 12.5677 30.7244 13.0502C33.1775 13.5328 35.4328 14.7311 37.2056 16.494C38.6005 15.8055 40.1586 15.5161 41.7076 15.6576C43.2567 15.7991 44.7365 16.3661 45.9835 17.2959C47.2306 18.2257 48.1963 19.4822 48.774 20.9265C49.3517 22.3707 49.519 23.9466 49.2572 25.4799C49.642 25.5157 50.0154 25.6303 50.354 25.8168C50.6925 26.0032 50.989 26.2574 51.225 26.5636C51.4609 26.8697 51.6312 27.2212 51.7252 27.5961C51.8193 27.9709 51.8351 28.3612 51.7716 28.7424C50.5003 36.3896 47.3559 41.2299 42.3441 43.2662V45.1562C42.3441 46.2751 41.8996 47.3481 41.1084 48.1393C40.3173 48.9305 39.2442 49.3749 38.1253 49.3749H26.8753C25.7564 49.3749 24.6834 48.9305 23.8922 48.1393C23.101 47.3481 22.6566 46.2751 22.6566 45.1562V43.2662C17.6447 41.2299 14.5003 36.3896 13.2291 28.7424C13.1677 28.3713 13.1814 27.9917 13.2694 27.6259C13.3574 27.2602 13.5178 26.9158 13.7413 26.6132C13.9647 26.3106 14.2466 26.0559 14.5702 25.8641C14.8938 25.6723 15.2526 25.5475 15.6253 25.4968V25.494ZM18.4378 25.4687H21.2503C21.2503 23.6039 21.9911 21.8155 23.3097 20.4968C24.6283 19.1782 26.4168 18.4374 28.2816 18.4374C30.1464 18.4374 31.9348 19.1782 33.2534 20.4968C34.572 21.8155 35.3128 23.6039 35.3128 25.4687H38.1253C38.1253 22.858 37.0882 20.3542 35.2421 18.5081C33.3961 16.662 30.8923 15.6249 28.2816 15.6249C25.6708 15.6249 23.167 16.662 21.321 18.5081C19.4749 20.3542 18.4378 22.858 18.4378 25.4687ZM24.0628 25.4687H32.5003C32.5003 24.3498 32.0558 23.2768 31.2647 22.4856C30.4735 21.6944 29.4004 21.2499 28.2816 21.2499C27.1627 21.2499 26.0896 21.6944 25.2985 22.4856C24.5073 23.2768 24.0628 24.3498 24.0628 25.4687ZM43.3734 25.4687H46.3856C46.598 24.6375 46.6178 23.7688 46.4435 22.9289C46.2693 22.0889 45.9056 21.2998 45.3801 20.6216C44.8547 19.9435 44.1815 19.3942 43.4116 19.0157C42.6418 18.6372 41.7957 18.4394 40.9378 18.4374C40.2628 18.4374 39.6216 18.5556 39.0253 18.7721C39.5231 19.5709 39.9338 20.4315 40.2488 21.3343C40.7844 21.2015 41.3473 21.2288 41.8676 21.413C42.3879 21.5972 42.8426 21.9301 43.1754 22.3704C43.5082 22.8107 43.7043 23.339 43.7395 23.8898C43.7748 24.4406 43.6475 24.9896 43.3734 25.4687ZM39.5316 43.7499H25.4691V45.1562C25.4691 45.5292 25.6172 45.8868 25.8809 46.1506C26.1447 46.4143 26.5024 46.5624 26.8753 46.5624H38.1253C38.4983 46.5624 38.856 46.4143 39.1197 46.1506C39.3834 45.8868 39.5316 45.5292 39.5316 45.1562V43.7499ZM24.4791 40.9374H40.5216C44.9822 39.5031 47.8059 35.4474 48.9984 28.2812H16.0022C17.1947 35.4474 20.0184 39.5031 24.4791 40.9374Z" fill="#FF8F0B"/>
</svg>
