<svg width="65" height="65" viewBox="0 0 65 65" fill="none" xmlns="http://www.w3.org/2000/svg">
<path d="M0 10C0 4.47715 4.47715 0 10 0H55C60.5228 0 65 4.47715 65 10V55C65 60.5228 60.5228 65 55 65H10C4.47715 65 0 60.5228 0 55V10Z" fill="white"/>
<path fill-rule="evenodd" clip-rule="evenodd" d="M55 2H10C5.58172 2 2 5.58172 2 10V55C2 59.4183 5.58172 63 10 63H55C59.4183 63 63 59.4183 63 55V10C63 5.58172 59.4183 2 55 2ZM10 0C4.47715 0 0 4.47715 0 10V55C0 60.5228 4.47715 65 10 65H55C60.5228 65 65 60.5228 65 55V10C65 4.47715 60.5228 0 55 0H10Z" fill="#FF8F0B"/>
<path d="M42.3906 43.9844L41.5938 43.1875C41.3125 42.9063 40.9762 42.7656 40.585 42.7656C40.195 42.7656 39.8594 42.9063 39.5781 43.1875C39.2969 43.4688 39.1562 43.7969 39.1562 44.1719C39.1562 44.5469 39.2969 44.875 39.5781 45.1562L41.4062 46.9844C41.6875 47.2656 42.0156 47.4063 42.3906 47.4063C42.7656 47.4063 43.0937 47.2656 43.375 46.9844L47.9219 42.5312C48.2031 42.25 48.3438 41.9137 48.3438 41.5225C48.3438 41.1325 48.2031 40.7969 47.9219 40.5156C47.6406 40.2344 47.305 40.0937 46.915 40.0937C46.5238 40.0937 46.1875 40.2344 45.9062 40.5156L42.3906 43.9844ZM41.875 26.875C42.4062 26.875 42.8512 26.695 43.21 26.335C43.57 25.9762 43.75 25.5312 43.75 25C43.75 24.4688 43.57 24.0231 43.21 23.6631C42.8512 23.3044 42.4062 23.125 41.875 23.125H23.125C22.5938 23.125 22.1481 23.3044 21.7881 23.6631C21.4294 24.0231 21.25 24.4688 21.25 25C21.25 25.5312 21.4294 25.9762 21.7881 26.335C22.1481 26.695 22.5938 26.875 23.125 26.875H41.875ZM43.75 53.125C41.1562 53.125 38.9456 52.2113 37.1181 50.3838C35.2894 48.555 34.375 46.3438 34.375 43.75C34.375 41.1562 35.2894 38.945 37.1181 37.1162C38.9456 35.2887 41.1562 34.375 43.75 34.375C46.3438 34.375 48.555 35.2887 50.3838 37.1162C52.2113 38.945 53.125 41.1562 53.125 43.75C53.125 46.3438 52.2113 48.555 50.3838 50.3838C48.555 52.2113 46.3438 53.125 43.75 53.125ZM19.375 15.625H45.625C46.6562 15.625 47.5394 15.9919 48.2744 16.7256C49.0081 17.4606 49.375 18.3438 49.375 19.375V31.8906C48.5 31.4531 47.5863 31.1325 46.6338 30.9287C45.68 30.7262 44.7188 30.625 43.75 30.625H23.125C22.5938 30.625 22.1481 30.8044 21.7881 31.1631C21.4294 31.5231 21.25 31.9688 21.25 32.5C21.25 33.0312 21.4294 33.4762 21.7881 33.835C22.1481 34.195 22.5938 34.375 23.125 34.375H34.5625C34.0312 34.9062 33.5387 35.4844 33.085 36.1094C32.6325 36.7344 32.2344 37.4062 31.8906 38.125H23.125C22.5938 38.125 22.1481 38.3044 21.7881 38.6631C21.4294 39.0231 21.25 39.4688 21.25 40C21.25 40.5312 21.4294 40.9762 21.7881 41.335C22.1481 41.695 22.5938 41.875 23.125 41.875H30.7656C30.7031 42.1875 30.6637 42.4925 30.6475 42.79C30.6325 43.0863 30.625 43.4062 30.625 43.75C30.625 45.0625 30.805 46.3206 31.165 47.5244C31.5238 48.7269 32.0625 49.875 32.7812 50.9688C32.625 51 32.4606 50.9762 32.2881 50.8975C32.1169 50.82 31.9688 50.7188 31.8438 50.5938L30.3438 49.0938C30.1563 48.9062 29.9375 48.8125 29.6875 48.8125C29.4375 48.8125 29.2187 48.9062 29.0312 49.0938L27.5313 50.5938C27.3438 50.7812 27.125 50.875 26.875 50.875C26.625 50.875 26.4062 50.7812 26.2187 50.5938L24.7188 49.0938C24.5312 48.9062 24.3125 48.8125 24.0625 48.8125C23.8125 48.8125 23.5938 48.9062 23.4062 49.0938L21.9062 50.5938C21.7188 50.7812 21.5 50.875 21.25 50.875C21 50.875 20.7812 50.7812 20.5938 50.5938L19.0937 49.0938C18.9062 48.9062 18.6875 48.8125 18.4375 48.8125C18.1875 48.8125 17.9688 48.9062 17.7813 49.0938L16.2812 50.5938L15.625 51.0156V19.375C15.625 18.3438 15.9919 17.4606 16.7256 16.7256C17.4606 15.9919 18.3438 15.625 19.375 15.625Z" fill="#FF8F0B"/>
</svg>
