<svg width="30" height="30" viewBox="0 0 30 30" fill="none" xmlns="http://www.w3.org/2000/svg">
<g clip-path="url(#clip0_751_26)">
<path d="M14.9873 2.5C8.0873 2.5 2.4873 8.1 2.4873 15C2.4873 21.9 8.0873 27.5 14.9873 27.5C21.8873 27.5 27.4873 21.9 27.4873 15C27.4873 8.1 21.8873 2.5 14.9873 2.5ZM19.4998 10.425C20.8373 10.425 21.9123 11.5 21.9123 12.8375C21.9123 14.175 20.8373 15.25 19.4998 15.25C18.1623 15.25 17.0873 14.175 17.0873 12.8375C17.0748 11.5 18.1623 10.425 19.4998 10.425ZM11.9998 8.45C13.6248 8.45 14.9498 9.775 14.9498 11.4C14.9498 13.025 13.6248 14.35 11.9998 14.35C10.3748 14.35 9.0498 13.025 9.0498 11.4C9.0498 9.7625 10.3623 8.45 11.9998 8.45ZM11.9998 19.8625V24.55C8.99981 23.6125 6.6248 21.3 5.5748 18.35C6.8873 16.95 10.1623 16.2375 11.9998 16.2375C12.6623 16.2375 13.4998 16.3375 14.3748 16.5125C12.3248 17.6 11.9998 19.0375 11.9998 19.8625ZM14.9873 25C14.6498 25 14.3248 24.9875 13.9998 24.95V19.8625C13.9998 18.0875 17.6748 17.2 19.4998 17.2C20.8373 17.2 23.1498 17.6875 24.2998 18.6375C22.8373 22.35 19.2248 25 14.9873 25Z" fill="black"/>
</g>
<defs>
<clipPath id="clip0_751_26">
<rect width="30" height="30" fill="white"/>
</clipPath>
</defs>
</svg>
