<svg width="32" height="32" viewBox="0 0 32 32" fill="none" xmlns="http://www.w3.org/2000/svg">
<g clip-path="url(#clip0_752_1066)">
<path d="M17.334 10.6668C17.334 7.72016 14.9473 5.3335 12.0007 5.3335C9.05399 5.3335 6.66732 7.72016 6.66732 10.6668C6.66732 13.6135 9.05399 16.0002 12.0007 16.0002C14.9473 16.0002 17.334 13.6135 17.334 10.6668ZM20.0007 13.3335V16.0002H24.0007V20.0002H26.6673V16.0002H30.6673V13.3335H26.6673V9.3335H24.0007V13.3335H20.0007ZM1.33398 24.0002V26.6668H22.6673V24.0002C22.6673 20.4535 15.5607 18.6668 12.0007 18.6668C8.44065 18.6668 1.33398 20.4535 1.33398 24.0002Z" fill="#FF8F0B"/>
</g>
<defs>
<clipPath id="clip0_752_1066">
<rect width="32" height="32" fill="white"/>
</clipPath>
</defs>
</svg>
