<svg width="40" height="40" viewBox="0 0 40 40" fill="none" xmlns="http://www.w3.org/2000/svg">
<g clip-path="url(#clip0_754_6972)">
<path d="M11.666 29.9997C9.83268 29.9997 8.34935 31.4997 8.34935 33.333C8.34935 35.1663 9.83268 36.6663 11.666 36.6663C13.4993 36.6663 14.9993 35.1663 14.9993 33.333C14.9993 31.4997 13.4993 29.9997 11.666 29.9997ZM1.66602 3.33301V6.66634H4.99935L10.9993 19.3163L8.74935 23.3997C8.48268 23.8663 8.33268 24.4163 8.33268 24.9997C8.33268 26.833 9.83268 28.333 11.666 28.333H31.666V24.9997H12.366C12.1327 24.9997 11.9493 24.8163 11.9493 24.583L11.9993 24.383L13.4993 21.6663H25.916C27.166 21.6663 28.266 20.983 28.8327 19.9497L34.7993 9.13301C34.9327 8.89967 34.9993 8.61634 34.9993 8.33301C34.9993 7.41634 34.2493 6.66634 33.3327 6.66634H8.68268L7.11602 3.33301H1.66602ZM28.3327 29.9997C26.4993 29.9997 25.016 31.4997 25.016 33.333C25.016 35.1663 26.4993 36.6663 28.3327 36.6663C30.166 36.6663 31.666 35.1663 31.666 33.333C31.666 31.4997 30.166 29.9997 28.3327 29.9997Z" fill="#FF8F0B"/>
</g>
<defs>
<clipPath id="clip0_754_6972">
<rect width="40" height="40" fill="white"/>
</clipPath>
</defs>
</svg>
